HIERARCHY
ROOT Hips
{
  OFFSET 0.000000 0.000000 0.000000
  CHANNELS 6 Xposition Yposition Zposition Zrotation Yrotation Xrotation
  JOINT Spine
  {
    OFFSET -0.000883 2.120903 -0.028059
    CHANNELS 3 Zrotation Yrotation Xrotation
    JOINT Spine1
    {
      OFFSET -0.002865 2.096658 0.129739
      CHANNELS 3 Zrotation Yrotation Xrotation
      JOINT Spine2
      {
        OFFSET -0.000072 2.101496 0.140380
        CHANNELS 3 Zrotation Yrotation Xrotation
        JOINT Neck
        {
          OFFSET 0.073278 1.835262 0.072900
          CHANNELS 3 Zrotation Yrotation Xrotation
          JOINT Head
          {
            OFFSET -0.033980 1.851628 -0.175733
            CHANNELS 3 Zrotation Yrotation Xrotation
            End Site
            {
              OFFSET 0 0 0
            }
          }
        }
        JOINT LeftShoulder
        {
          OFFSET 3.021134 1.180177 0.406022
          CHANNELS 3 Zrotation Yrotation Xrotation
          JOINT LeftArm
          {
            OFFSET 4.585380 -0.000000 -0.000000
            CHANNELS 3 Zrotation Yrotation Xrotation
            JOINT LeftForeArm
            {
              OFFSET 2.689350 -0.000000 -0.000000
              CHANNELS 3 Zrotation Yrotation Xrotation
              JOINT LeftHand
              {
                OFFSET 0.585058 -0.000000 -0.000000
                CHANNELS 3 Zrotation Yrotation Xrotation
                JOINT LeftHandIndex1
                {
                  OFFSET 0.471689 -0.000000 -0.000000
                  CHANNELS 3 Zrotation Yrotation Xrotation
                  End Site
                  {
                    OFFSET 0 0 0
                  }
                }
              }
            }
          }
        }
        JOINT RightShoulder
        {
          OFFSET -2.950738 1.188427 0.314298
          CHANNELS 3 Zrotation Yrotation Xrotation
          JOINT RightArm
          {
            OFFSET -4.474500 -0.000000 -0.000000
            CHANNELS 3 Zrotation Yrotation Xrotation
            JOINT RightForeArm
            {
              OFFSET -2.938960 -0.000000 -0.000000
              CHANNELS 3 Zrotation Yrotation Xrotation
              JOINT RightHand
              {
                OFFSET -0.405092 -0.000000 -0.000000
                CHANNELS 3 Zrotation Yrotation Xrotation
                JOINT RightHandIndex1
                {
                  OFFSET -0.326596 -0.000000 -0.000000
                  CHANNELS 3 Zrotation Yrotation Xrotation
                  End Site
                  {
                    OFFSET 0 0 0
                  }
                }
              }
            }
          }
        }
      }
    }
  }
  JOINT LeftUpLeg
  {
    OFFSET 2.251771 -6.186694 0.000000
    CHANNELS 3 Zrotation Yrotation Xrotation
    JOINT LeftLeg
    {
      OFFSET 2.266012 -6.225823 0.000000
      CHANNELS 3 Zrotation Yrotation Xrotation
      JOINT LeftFoot
      {
        OFFSET 0.237014 -0.651191 2.158476
        CHANNELS 3 Zrotation Yrotation Xrotation
        JOINT LeftToeBase
        {
          OFFSET 0.000000 -0.000000 1.129490
          CHANNELS 3 Zrotation Yrotation Xrotation
          End Site
          {
            OFFSET 0 0 0
          }
        }
      }
    }
  }
  JOINT RightUpLeg
  {
    OFFSET -2.280357 -6.265234 0.000000
    CHANNELS 3 Zrotation Yrotation Xrotation
    JOINT RightLeg
    {
      OFFSET -2.254897 -6.195283 0.000000
      CHANNELS 3 Zrotation Yrotation Xrotation
      JOINT RightFoot
      {
        OFFSET -0.283752 -0.779600 2.231370
        CHANNELS 3 Zrotation Yrotation Xrotation
        JOINT RightToeBase
        {
          OFFSET -0.000000 -0.000000 1.178990
          CHANNELS 3 Zrotation Yrotation Xrotation
          End Site
          {
            OFFSET 0 0 0
          }
        }
      }
    }
  }
}
MOTION
Frames: 15
Frame Time: 0.00833333
1.645060 15.541100 8.311950 -1.000610 -0.078831 11.197700 -17.222500 -7.889490 -2.038140 0.000000 0.000000 13.945700 11.519300 0.000000 -19.520500 0.000000 0.000000 -7.027050 0.393978 6.395840 -37.980700 0.000000 0.000000 27.784300 -7.186550 0.000000 4.681790 0.000000 0.000000 -18.185900 -1.155670 -0.072550 -0.563987 0.893946 -0.086182 -5.870170 1.578450 0.040481 -5.756960 11.394100 4.721550 -9.476790 -4.422880 3.266320 10.339200 -0.000000 0.000000 0.000000 78.821500 -23.416200 -33.217000 0.000000 0.000000 123.531000 12.690800 0.000000 -21.506900 0.000000 0.000000 7.125020 -0.000000 0.000000 0.000000 -63.968000 1.969650 -10.077800 0.000000 0.000000 105.167000 5.835780 0.000000 -36.293700 0.000000 0.000000 7.125020
1.570530 15.547400 8.377410 -0.985174 1.238910 11.237200 -16.675200 -8.406050 -1.500900 0.000000 0.000000 12.744300 10.846000 0.000000 -19.023700 0.000000 0.000000 -7.434030 -0.013021 6.592380 -37.476700 0.000000 0.000000 27.129800 -7.308420 0.000000 5.249430 0.000000 0.000000 -18.338900 -1.140420 -0.061731 -0.651377 0.864894 -0.070030 -5.948570 1.539000 0.048476 -5.790490 10.918700 4.368340 -9.632290 -4.280380 3.033420 10.412900 0.000000 -0.000000 0.000000 79.409200 -24.631700 -32.722100 0.000000 0.000000 124.151000 12.224500 0.000000 -21.439000 0.000000 0.000000 7.125020 0.000000 -0.000000 0.000000 -63.972100 1.772150 -9.072840 0.000000 0.000000 105.396000 5.676610 0.000000 -36.444800 0.000000 0.000000 7.125020
1.492070 15.552500 8.445760 -0.981306 2.606350 11.268500 -16.083700 -8.967260 -0.951718 0.000000 0.000000 11.502600 10.177200 0.000000 -18.511300 0.000000 0.000000 -7.860820 -0.255679 6.633870 -36.916400 0.000000 0.000000 26.699400 -7.431110 0.000000 5.755310 0.000000 0.000000 -18.395500 -1.118750 -0.044857 -0.737344 0.836159 -0.045429 -6.020910 1.495900 0.060330 -5.818680 10.422200 4.001390 -9.790520 -4.129820 2.791860 10.488900 0.000000 -0.000000 0.000000 80.029000 -25.859200 -32.235200 0.000000 0.000000 124.728000 11.771500 0.000000 -21.328300 0.000000 0.000000 7.125020 0.000000 -0.000000 0.000000 -63.985000 1.585920 -8.112840 0.000000 0.000000 105.614000 5.496950 0.000000 -36.654800 0.000000 0.000000 7.125020
1.409790 15.555900 8.516890 -0.989367 4.010590 11.296900 -15.449400 -9.564300 -0.411237 0.000000 0.000000 10.247700 9.519710 0.000000 -17.997000 0.000000 0.000000 -8.297590 -0.330255 6.519030 -36.309000 0.000000 0.000000 26.470800 -7.582200 0.000000 6.247950 0.000000 0.000000 -18.346300 -1.090390 -0.017923 -0.826729 0.804663 -0.007125 -6.086190 1.445580 0.078515 -5.837870 9.902780 3.620300 -9.955070 -3.968270 2.540910 10.566500 -0.000000 -0.000000 0.000000 80.672700 -27.094000 -31.758900 0.000000 0.000000 125.267000 11.318500 0.000000 -21.193600 0.000000 0.000000 7.125020 -0.000000 -0.000000 0.000000 -64.012200 1.400210 -7.190970 0.000000 0.000000 105.811000 5.357900 0.000000 -36.941500 0.000000 0.000000 7.125020
1.323540 15.557600 8.590340 -1.011600 5.456060 11.326700 -14.765900 -10.604800 0.084898 0.000000 0.000000 9.025570 9.275130 0.000000 -17.464300 0.000000 0.000000 -8.745050 -0.236221 6.248120 -35.651500 0.000000 0.000000 26.414200 -7.769580 0.000000 6.691250 0.000000 0.000000 -18.393900 -1.053310 0.018200 -0.915491 0.770826 0.043748 -6.149920 1.387470 0.102474 -5.856070 9.356140 3.220720 -10.120600 -3.795110 2.278150 10.645000 -0.000000 0.000000 0.000000 81.335300 -28.346500 -31.292200 0.000000 0.000000 125.772000 10.875300 0.000000 -21.052700 0.000000 0.000000 7.125020 -0.000000 0.000000 0.000000 -64.062500 1.206840 -6.296420 0.000000 0.000000 105.971000 5.328540 0.000000 -37.306900 0.000000 0.000000 7.125020
1.233200 15.556800 8.665700 -1.038290 6.946140 11.364900 -14.044400 -11.683500 0.493162 0.000000 0.000000 7.896440 9.048630 0.000000 -16.969600 0.000000 0.000000 -9.206810 0.018010 5.802400 -34.944900 0.000000 0.000000 26.496800 -7.991140 0.000000 6.962000 0.000000 0.000000 -18.663900 -1.015410 0.062179 -1.002650 0.728967 0.104943 -6.217560 1.320200 0.131406 -5.879550 8.786800 2.798530 -10.282900 -3.612250 2.001280 10.724400 -0.000000 0.000000 0.000000 82.009000 -29.622100 -30.845700 0.000000 0.000000 126.247000 10.461600 0.000000 -20.922300 0.000000 0.000000 7.125020 -0.000000 0.000000 0.000000 -64.134100 0.998174 -5.434040 0.000000 0.000000 106.110000 5.384040 0.000000 -37.686100 0.000000 0.000000 7.125020
1.138690 15.553500 8.742680 -1.072770 8.490000 11.414400 -13.273800 -12.825200 0.767272 0.000000 0.000000 6.928600 8.859940 0.000000 -16.540800 0.000000 0.000000 -9.662690 0.429943 5.176380 -34.192300 0.000000 0.000000 26.684500 -8.285860 0.000000 6.904310 0.000000 0.000000 -19.049000 -0.972441 0.111612 -1.089770 0.679208 0.173378 -6.289200 1.241650 0.163546 -5.907300 8.195930 2.351740 -10.443700 -3.420960 1.708940 10.805900 0.000000 -0.000000 0.000000 82.685800 -30.921000 -30.413900 0.000000 0.000000 126.687000 10.097200 0.000000 -20.813400 0.000000 0.000000 7.125020 0.000000 -0.000000 0.000000 -64.233600 0.760788 -4.591920 0.000000 0.000000 106.236000 5.514260 0.000000 -38.030500 0.000000 0.000000 7.125020
1.040340 15.547500 8.821400 -1.114530 10.087700 11.469600 -12.452800 -14.005200 0.883952 0.000000 0.000000 6.173160 8.689870 0.000000 -16.205100 0.000000 0.000000 -10.109900 0.990433 4.368660 -33.396700 0.000000 0.000000 26.945800 -8.651370 0.000000 6.392740 0.000000 0.000000 -19.481100 -0.919047 0.165375 -1.170810 0.619006 0.247532 -6.370640 1.146260 0.197861 -5.948790 7.583160 1.876870 -10.563900 -3.221050 1.400440 10.876500 -0.000000 -0.000000 0.000000 83.363800 -32.241600 -30.015100 0.000000 0.000000 127.086000 9.783440 0.000000 -20.738100 0.000000 0.000000 7.125020 -0.000000 -0.000000 0.000000 -64.367800 0.504273 -3.782700 0.000000 0.000000 106.368000 5.596570 0.000000 -38.275300 0.000000 0.000000 7.125020
0.938598 15.539100 8.902110 -1.162870 11.735500 11.523500 -11.582700 -15.227100 0.849052 0.000000 0.000000 5.628760 8.549520 0.000000 -15.961300 0.000000 0.000000 -10.550700 1.679430 3.396740 -32.566200 0.000000 0.000000 27.252500 -9.095060 0.000000 5.398300 0.000000 0.000000 -19.768900 -0.851851 0.224223 -1.245740 0.546063 0.328320 -6.450810 1.029650 0.234364 -5.992160 6.954170 1.378330 -10.669500 -3.015280 1.077320 10.945500 -0.000000 0.000000 0.000000 84.026700 -33.575000 -29.627100 0.000000 0.000000 127.435000 9.522220 0.000000 -20.695500 0.000000 0.000000 7.125020 -0.000000 0.000000 0.000000 -64.541800 0.226080 -2.990730 0.000000 0.000000 106.538000 5.717800 0.000000 -38.471100 0.000000 0.000000 7.125020
0.834159 15.529100 8.984720 -1.214430 13.425600 11.573000 -10.670800 -16.483000 0.700078 0.000000 0.000000 5.224480 8.439830 0.000000 -15.775900 0.000000 0.000000 -10.971100 2.467270 2.290680 -31.717100 0.000000 0.000000 27.584800 -9.623330 0.000000 3.988660 0.000000 0.000000 -19.703200 -0.767852 0.290840 -1.316950 0.456650 0.419211 -6.527700 0.886141 0.274439 -6.033750 6.310740 0.855400 -10.734800 -2.803520 0.739654 11.002100 0.000000 -0.000000 0.000000 84.666600 -34.910800 -29.245600 0.000000 0.000000 127.731000 9.280270 0.000000 -20.671700 0.000000 0.000000 7.125020 0.000000 -0.000000 0.000000 -64.763000 -0.067843 -2.218620 0.000000 0.000000 106.750000 5.818780 0.000000 -38.565400 0.000000 0.000000 7.125020
0.727781 15.518500 9.069390 -1.270410 15.139600 11.604700 -9.729210 -17.756800 0.516015 0.000000 0.000000 4.839750 8.365570 0.000000 -15.588400 0.000000 0.000000 -11.379900 3.323000 1.107720 -30.864500 0.000000 0.000000 27.935000 -10.215600 0.000000 2.308380 0.000000 0.000000 -19.225400 -0.666587 0.368854 -1.373550 0.352679 0.524947 -6.587900 0.717265 0.320310 -6.065400 5.659510 0.316381 -10.802200 -2.589510 0.391352 11.062600 0.000000 0.000000 0.000000 85.265400 -36.237400 -28.840300 0.000000 0.000000 127.978000 9.055840 0.000000 -20.650100 0.000000 0.000000 7.125020 0.000000 0.000000 0.000000 -65.030100 -0.360763 -1.434460 0.000000 0.000000 106.989000 5.942920 0.000000 -38.613400 0.000000 0.000000 7.125020
0.620090 15.508100 9.155700 -1.333950 16.854000 11.617600 -8.767820 -19.026900 0.363566 0.000000 0.000000 4.352300 8.327740 0.000000 -15.340200 0.000000 0.000000 -11.759200 4.214080 -0.087041 -30.041300 0.000000 0.000000 28.304300 -10.871800 0.000000 0.534310 0.000000 0.000000 -18.279900 -0.546742 0.463542 -1.417120 0.237330 0.652747 -6.631710 0.525338 0.375594 -6.086310 5.003040 -0.235253 -10.855000 -2.375000 0.035269 11.122000 0.000000 -0.000000 0.000000 85.831000 -37.540300 -28.419800 0.000000 0.000000 128.184000 8.833200 0.000000 -20.607100 0.000000 0.000000 7.125020 0.000000 -0.000000 0.000000 -65.351900 -0.641944 -0.645992 0.000000 0.000000 107.240000 6.167970 0.000000 -38.639600 0.000000 0.000000 7.125020
0.511469 15.498400 9.242980 -1.397770 18.560600 11.618100 -7.804680 -20.288600 0.300303 0.000000 0.000000 3.641800 8.330110 0.000000 -14.967700 0.000000 0.000000 -12.103800 5.106710 -1.256090 -29.270800 0.000000 0.000000 28.701100 -11.579300 0.000000 -1.202760 0.000000 0.000000 -17.042000 -0.418180 0.570237 -1.443500 0.114046 0.796277 -6.663560 0.319649 0.437834 -6.103290 4.347410 -0.791259 -10.892200 -2.163330 -0.323034 11.183400 -0.000000 0.000000 0.000000 86.367200 -38.800600 -27.992100 0.000000 0.000000 128.360000 8.617580 0.000000 -20.529700 0.000000 0.000000 7.125020 -0.000000 0.000000 0.000000 -65.744500 -0.886863 0.164982 0.000000 0.000000 107.476000 6.449860 0.000000 -38.649500 0.000000 0.000000 7.125020
0.402207 15.489500 9.330430 -1.471180 20.244300 11.610700 -6.843810 -21.528300 0.399478 0.000000 0.000000 2.559300 8.377690 0.000000 -14.396900 0.000000 0.000000 -12.406800 5.995680 -2.373290 -28.577700 0.000000 0.000000 29.132000 -12.316000 0.000000 -2.838930 0.000000 0.000000 -15.721500 -0.272025 0.690390 -1.451710 -0.014337 0.957856 -6.689100 0.097987 0.507823 -6.122510 3.704960 -1.347170 -10.907700 -1.959370 -0.680525 11.245300 -0.000000 -0.000000 0.000000 86.884500 -40.012600 -27.580400 0.000000 0.000000 128.525000 8.433190 0.000000 -20.407800 0.000000 0.000000 7.125020 -0.000000 -0.000000 0.000000 -66.219200 -1.079000 0.995145 0.000000 0.000000 107.673000 6.720910 0.000000 -38.685600 0.000000 0.000000 7.125020
0.292692 15.480900 9.417350 -1.556460 21.887500 11.598800 -5.959700 -22.753100 1.245090 0.000000 0.000000 0.000000 8.475810 0.000000 -13.074300 0.000000 0.000000 -12.667000 6.871700 -3.422990 -27.979800 0.000000 0.000000 29.600100 -13.073200 0.000000 -4.357350 0.000000 0.000000 -14.294900 -0.113098 0.821111 -1.445650 -0.138875 1.133910 -6.703740 -0.127496 0.584286 -6.136690 3.074150 -1.893330 -10.921800 -1.763760 -1.031520 11.313600 0.000000 0.000000 0.000000 87.387800 -41.151900 -27.186600 0.000000 0.000000 128.687000 8.292770 0.000000 -20.244800 0.000000 0.000000 7.125020 0.000000 0.000000 0.000000 -66.783000 -1.195920 1.875860 0.000000 0.000000 107.810000 7.049300 0.000000 -38.790300 0.000000 0.000000 7.125020
